Coordinates
version=1
nRows=8
nColumns=46
inDegrees=yes

Units are S.I. units (second, meters, Newtons, ...)
Angles are in degrees.

endheader
time	pelvis_tilt	pelvis_list	pelvis_rotation	pelvis_tx	pelvis_ty	pelvis_tz	bb_angle	bb_tx	bb_ty	bb_tz	hip_flexion_r	hip_adduction_r	hip_rotation_r	knee_angle_r	knee_angle_r_beta	ankle_angle_r	subtalar_angle_r	mtp_angle_r	crank_angle_r	hip_flexion_l	hip_adduction_l	hip_rotation_l	knee_angle_l	knee_angle_l_beta	ankle_angle_l	subtalar_angle_l	mtp_angle_l	crank_angle_l	lumbar_extension	lumbar_bending	lumbar_rotation	arm_flex_r	arm_add_r	arm_rot_r	elbow_flex_r	pro_sup_r	wrist_flex_r	wrist_dev_r	arm_flex_l	arm_add_l	arm_rot_l	elbow_flex_l	pro_sup_l	wrist_flex_l	wrist_dev_l
      2.50000000	    -33.97601544	     -6.88273883	     -4.00545790	      0.38229501	      1.07334360	     -0.21694372	      0.00000000	      0.50000000	      0.00000000	      0.25000000	     87.56510076	      5.48754001	      1.16421631	    106.78714955	      1.86378736	      2.32844940	     -8.43219782	      0.00000000	      0.00000000	     38.12628250	    -15.22774020	    -10.04070663	     29.21709447	      0.50993450	    -38.01389610	     -4.03970380	      0.00000000	      0.00000000	    -65.19493630	      2.50201897	      4.48203716	     40.97340374	    -34.32503171	     31.09129440	    124.57821381	     57.72754251	      0.00000000	      0.00000000	     21.50980380	    -21.03898807	      3.14499419	    127.05229012	     56.11612732	      0.00000000	      0.00000000
      2.50500000	    -34.35285383	     -6.48945885	     -4.52753336	      0.38172141	      1.07529517	     -0.21669734	      0.00000000	      0.50000000	      0.00000000	      0.25000000	     87.57221486	      5.61696552	      1.45508584	    105.09757296	      1.83429868	      3.66285297	     -8.16489264	      0.00000000	      0.00000000	     38.70587646	    -14.88608430	     -9.27661558	     30.97581052	      0.54062988	    -37.82984572	     -5.77695249	      0.00000000	      0.00000000	    -65.30502853	      1.92912382	      4.35769627	     41.48307279	    -34.50217942	     31.09945933	    124.78693314	     57.74789508	      0.00000000	      0.00000000	     21.89113688	    -21.19859957	      2.92536273	    127.15349050	     56.10043773	      0.00000000	      0.00000000
      2.51000000	    -34.71258041	     -6.67936111	     -4.77786477	      0.38192750	      1.07735015	     -0.21632958	      0.00000000	      0.50000000	      0.00000000	      0.25000000	     87.14842296	      5.68018273	      1.15687351	    103.11201065	      1.79964408	      5.36528642	     -7.36150724	      0.00000000	      0.00000000	     39.56458006	    -14.94125400	     -8.00663111	     33.02688804	      0.57642794	    -37.83340900	     -7.84097215	      0.00000000	      0.00000000	    -65.50711741	      1.92056630	      4.72374456	     42.06321269	    -34.82854734	     31.40435878	    125.10308736	     57.82348359	      0.00000000	      0.00000000	     22.13475861	    -21.43836694	      2.60738260	    127.34827693	     56.09316316	      0.00000000	      0.00000000
      2.51500000	    -35.06184196	     -6.81693725	     -4.98723970	      0.38265843	      1.07926970	     -0.21543552	      0.00000000	      0.50000000	      0.00000000	      0.25000000	     86.54367653	      5.74712990	      0.83355802	    100.96476840	      1.76216764	      6.87442054	     -7.00914001	      0.00000000	      0.00000000	     40.37110491	    -14.94529590	     -6.62857442	     34.95827593	      0.61013702	    -37.85997140	     -9.31051843	      0.00000000	      0.00000000	    -65.67819160	      1.83420464	      4.91665711	     42.40766805	    -35.10688019	     31.85604209	    125.41742978	     57.92332777	      0.00000000	      0.00000000	     22.20037915	    -21.64430338	      2.31355235	    127.45170884	     56.07918717	      0.00000000	      0.00000000
      2.52000000	    -35.66624291	     -6.46910533	     -5.14070728	      0.38204190	      1.08001442	     -0.21557788	      0.00000000	      0.50000000	      0.00000000	      0.25000000	     86.29306221	      5.45063721	      0.92006306	     98.75973444	      1.72368253	      8.21829893	     -6.63753154	      0.00000000	      0.00000000	     41.61437913	    -14.25953362	     -5.06047168	     37.00089124	      0.64578738	    -38.06218153	    -10.91586491	      0.00000000	      0.00000000	    -65.39566370	      1.72764939	      4.56393130	     43.43515213	    -35.88438977	     33.48120223	    125.85697683	     58.15998152	      0.00000000	      0.00000000	     21.90653103	    -21.77080698	      1.52900771	    127.72968589	     56.09060167	      0.00000000	      0.00000000
      2.52500000	    -35.96891930	     -6.44112234	     -5.36130879	      0.38249935	      1.08136360	     -0.21478054	      0.00000000	      0.50000000	      0.00000000	      0.25000000	     85.43686877	      5.43881886	      0.62651929	     96.31156332	      1.68095389	      9.44935665	     -6.47288702	      0.00000000	      0.00000000	     42.49301590	    -14.05659530	     -3.65696547	     38.97538102	      0.68024873	    -38.27591485	    -11.96352634	      0.00000000	      0.00000000	    -65.39755305	      1.51916764	      4.56856896	     43.52045454	    -35.77558078	     33.61151368	    125.84384796	     58.16199219	      0.00000000	      0.00000000	     21.94359881	    -22.10289684	      1.26166396	    127.72948894	     56.06670733	      0.00000000	      0.00000000
      2.53000000	    -36.31868182	     -6.39488007	     -5.50164800	      0.38282388	      1.08225108	     -0.21407528	      0.00000000	      0.50000000	      0.00000000	      0.25000000	     84.56019923	      5.34107099	      0.30023532	     93.76270821	      1.63646797	     10.55022067	     -6.44113440	      0.00000000	      0.00000000	     43.50764574	    -13.76243507	     -2.17914243	     41.03681069	      0.71622746	    -38.42425893	    -12.85220996	      0.00000000	      0.00000000	    -65.24215281	      1.39191923	      4.50785439	     43.52926198	    -35.73190786	     33.78443980	    125.87072916	     58.17799043	      0.00000000	      0.00000000	     21.81416990	    -22.34929815	      0.96722171	    127.71503254	     56.04118550	      0.00000000	      0.00000000
      2.53500000	    -36.63809713	     -6.18496129	     -5.64536125	      0.38313328	      1.08281914	     -0.21337751	      0.00000000	      0.50000000	      0.00000000	      0.25000000	     83.63773092	      5.14124599	      0.01283334	     91.13814092	      1.59066063	     11.34922728	     -6.57884060	      0.00000000	      0.00000000	     44.47200762	    -13.30611574	     -0.89044309	     43.13867705	      0.75291195	    -38.45952603	    -13.69550488	      0.00000000	      0.00000000	    -65.06293380	      1.17007027	      4.36283410	     43.40333087	    -35.68989951	     33.94028319	    125.89698383	     58.19570522	      0.00000000	      0.00000000	     21.64351136	    -22.56311708	      0.72719959	    127.67621516	     56.01828976	      0.00000000	      0.00000000
